<?xml version="1.0" standalone="no"?>
<!DOCTYPE svg PUBLIC "-//W3C//DTD SVG 20010904//EN"
 "http://www.w3.org/TR/2001/REC-SVG-20010904/DTD/svg10.dtd">
<svg version="1.0" xmlns="http://www.w3.org/2000/svg"
 width="512.000000pt" height="512.000000pt" viewBox="0 0 512.000000 512.000000"
 preserveAspectRatio="xMidYMid meet">

<g transform="translate(0.000000,512.000000) scale(0.100000,-0.100000)"
fill="#FFFFFF" stroke="none">
<path d="M805 4793 c-74 -38 -124 -114 -125 -185 l0 -38 -87 0 c-49 0 -106 -5
-128 -11 -74 -21 -135 -107 -135 -189 1 -60 63 -147 123 -169 16 -6 73 -11
128 -11 l99 0 0 -37 c0 -21 11 -62 25 -90 28 -61 92 -108 159 -118 56 -8 131
16 172 56 l34 33 0 -1474 0 -1474 -33 32 c-101 98 -273 67 -332 -61 -14 -28
-25 -68 -25 -89 l0 -36 -114 -4 c-110 -3 -116 -4 -153 -34 -42 -33 -83 -104
-83 -144 0 -83 61 -168 135 -189 22 -6 79 -11 128 -11 l87 0 0 -35 c0 -109 99
-205 210 -205 85 0 163 45 190 111 l12 29 1468 0 1468 0 12 -29 c27 -66 105
-111 190 -111 111 0 210 96 210 205 l0 35 88 0 c48 0 105 5 127 11 74 21 135
107 135 189 -1 60 -63 147 -123 169 -16 6 -73 11 -128 11 l-99 0 0 38 c0 62
-42 137 -96 171 -90 58 -190 48 -266 -26 l-38 -37 0 1484 0 1484 38 -37 c76
-74 176 -84 266 -26 54 34 96 109 96 172 l0 37 99 0 c55 0 112 5 128 11 60 22
122 109 123 169 0 82 -61 168 -135 189 -22 6 -79 11 -127 11 l-88 0 0 35 c0
109 -99 205 -210 205 -85 0 -163 -45 -190 -111 l-12 -29 -1468 0 -1468 0 -12
29 c-15 38 -56 76 -102 95 -48 20 -134 20 -173 -1z m173 -90 c22 -17 36 -38
44 -69 l12 -44 1526 0 1526 0 12 44 c16 61 64 98 127 98 90 0 135 -57 135
-169 l0 -73 128 0 c151 0 188 -13 210 -72 18 -46 9 -82 -28 -119 l-28 -29
-141 0 -141 0 0 -73 c0 -86 -20 -132 -71 -159 -40 -22 -68 -23 -113 -4 -41 17
-74 58 -82 102 l-6 34 -64 0 -64 0 0 -1610 0 -1610 64 0 64 0 6 34 c12 63 73
116 133 116 42 0 94 -32 115 -71 13 -24 18 -55 18 -106 l0 -73 141 0 141 0 28
-29 c37 -37 46 -73 28 -119 -22 -59 -59 -72 -210 -72 l-128 0 0 -72 c0 -113
-45 -170 -135 -170 -63 0 -111 37 -127 98 l-12 44 -1526 0 -1526 0 -12 -44
c-16 -61 -64 -98 -127 -98 -90 0 -135 57 -135 170 l0 72 -127 0 c-152 0 -189
13 -211 72 -18 46 -9 82 28 119 l28 29 141 0 141 0 0 73 c0 86 20 132 71 159
40 22 68 23 113 4 41 -17 74 -58 82 -102 l6 -34 59 0 59 0 0 1610 0 1610 -59
0 -59 0 -6 -34 c-8 -44 -41 -85 -82 -102 -45 -19 -73 -18 -113 4 -51 27 -71
73 -71 159 l0 73 -138 0 c-151 0 -169 6 -197 60 -19 37 -19 63 1 101 24 47 66
59 209 59 l125 0 0 70 c0 101 33 155 102 169 46 10 78 3 116 -26z"/>
<path d="M1735 3768 c-34 -18 -77 -62 -87 -88 -12 -33 -12 -2207 1 -2241 11
-31 73 -87 104 -94 13 -4 272 -5 577 -3 l555 3 80 28 c206 73 352 199 440 382
24 50 50 120 59 156 23 93 21 256 -3 351 -45 174 -160 337 -306 435 l-55 36
20 31 c140 211 153 460 37 681 -46 86 -174 212 -264 258 -143 74 -168 77 -682
77 -313 -1 -462 -4 -476 -12z m996 -361 c227 -117 222 -441 -9 -554 l-57 -28
-345 0 -345 0 -3 308 -2 307 349 0 349 0 63 -33z m69 -928 c179 -28 308 -156
342 -336 31 -166 -67 -350 -227 -429 l-60 -29 -442 -3 -443 -3 0 400 0 401
348 3 c191 1 363 3 382 5 19 1 64 -3 100 -9z"/>
</g>
</svg>
